<?xml version="1.0" encoding="UTF-8"?>
<svg version="1.1" xmlns="http://www.w3.org/2000/svg" width="500" height="500">
<path d="M0 0 C0.68146088 0.00187317 1.36292175 0.00374634 2.06503296 0.00567627 C3.50238961 0.01238894 4.93972824 0.02628807 6.37695312 0.046875 C8.58480673 0.078109 10.79194709 0.087854 13 0.09375 C23.79747322 0.16466072 23.79747322 0.16466072 24.9609375 1.328125 C25.07034955 4.36527081 25.11517695 7.38050737 25.11865234 10.41845703 C25.12373306 11.37296249 25.12881378 12.32746796 25.13404846 13.31089783 C25.14477929 15.39202063 25.15338874 17.47315516 25.16016769 19.55429459 C25.1719239 22.84964335 25.19137013 26.14485911 25.21328735 29.44015503 C25.27500017 38.81259725 25.32889629 48.18502809 25.36230469 57.55761719 C25.38326992 63.28417114 25.41859478 69.01048659 25.46306229 74.73690414 C25.47721483 76.91930199 25.48594303 79.10174208 25.48911667 81.2841835 C25.49403436 84.34351713 25.51721718 87.40222054 25.54443359 90.46142578 C25.54142746 91.36041092 25.53842133 92.25939606 25.5353241 93.18562317 C25.61660623 99.34922903 26.49596553 104.24691004 30.4609375 109.203125 C34.59443516 112.30324824 40.06079706 111.76717758 44.9609375 111.328125 C48.68449394 109.7436329 50.95070005 107.84604054 52.9609375 104.328125 C54.10927821 99.17555727 54.11880597 94.11573613 54.13452148 88.86621094 C54.144552 87.46520142 54.144552 87.46520142 54.15478516 86.03588867 C54.16879141 84.015961 54.18069937 81.99601791 54.19073296 79.97606659 C54.20718576 76.78250952 54.23042124 73.58906809 54.25563049 70.39556885 C54.32631844 61.31878429 54.38671778 52.24195521 54.43774414 43.16503906 C54.46945784 37.60784995 54.51070139 32.0507988 54.55793953 26.49372101 C54.57399109 24.37417313 54.586298 22.25459356 54.59484673 20.13500214 C54.60694262 17.18067812 54.63106392 14.22668183 54.65795898 11.27246094 C54.65854813 10.39140686 54.65913727 9.51035278 54.65974426 8.6026001 C54.73302908 2.55603342 54.73302908 2.55603342 56.9609375 0.328125 C59.6690979 0.08761597 59.6690979 0.08761597 63.15478516 0.10107422 C65.10658188 0.10130081 65.10658188 0.10130081 67.09780884 0.10153198 C68.52354077 0.11174607 69.94927115 0.12217808 71.375 0.1328125 C72.82945563 0.13654205 74.28391377 0.1393893 75.7383728 0.14138794 C79.56891806 0.149029 83.39931196 0.16868143 87.22979736 0.1907959 C91.13755241 0.21124422 95.04533189 0.22038748 98.953125 0.23046875 C106.62246488 0.25192698 114.29167999 0.28606849 121.9609375 0.328125 C122.92028599 2.3824588 123.87695777 4.43804272 124.83251953 6.49414062 C125.36555695 7.63870728 125.89859436 8.78327393 126.44778442 9.96252441 C128.49053716 14.5060765 130.19353873 19.12830378 131.8359375 23.828125 C134.92421184 32.51427579 138.14756034 41.13592434 141.52294922 49.71484375 C141.84279785 50.53984375 142.16264648 51.36484375 142.4921875 52.21484375 C142.91854492 53.30091919 142.91854492 53.30091919 143.35351562 54.40893555 C143.9609375 56.328125 143.9609375 56.328125 143.9609375 59.328125 C144.6209375 59.328125 145.2809375 59.328125 145.9609375 59.328125 C146.13689453 58.70993896 146.31285156 58.09175293 146.49414062 57.45483398 C148.1924211 51.62447747 150.15734966 46.00661941 152.4609375 40.390625 C152.79697998 39.56449707 153.13302246 38.73836914 153.47924805 37.88720703 C154.22357912 36.05755333 154.96933578 34.22847912 155.71630859 32.39990234 C157.10473381 28.97323187 158.46506863 25.53603903 159.82421875 22.09765625 C160.80702257 19.63270519 161.7900932 17.16786049 162.7734375 14.703125 C163.47533203 12.91467163 163.47533203 12.91467163 164.19140625 11.09008789 C164.63742187 9.98012451 165.0834375 8.87016113 165.54296875 7.7265625 C165.93718018 6.73317871 166.3313916 5.73979492 166.73754883 4.71630859 C167.9609375 2.328125 167.9609375 2.328125 170.9609375 0.328125 C173.43150573 0.15700498 175.78597671 0.09559376 178.25390625 0.1328125 C179.31294914 0.13705734 179.31294914 0.13705734 180.39338684 0.14138794 C182.64524383 0.15257036 184.89670102 0.1776708 187.1484375 0.203125 C188.67642654 0.21315733 190.20442183 0.22228274 191.73242188 0.23046875 C195.47541413 0.25250328 199.21810806 0.28701933 202.9609375 0.328125 C204.42088857 3.17383029 205.11582253 4.68294787 204.35620117 7.84716797 C203.95119385 8.74580566 203.54618652 9.64444336 203.12890625 10.5703125 C202.6685498 11.61670898 202.20819336 12.66310547 201.73388672 13.74121094 C200.94908936 15.4548584 200.94908936 15.4548584 200.1484375 17.203125 C199.60513171 18.42400442 199.0636781 19.64570949 198.52392578 20.86816406 C197.33484645 23.55549359 196.13648069 26.23842679 194.93212891 28.91894531 C191.71066254 36.10415699 188.58043539 43.32958561 185.43746948 50.54937744 C184.3377777 53.07390053 183.23566547 55.59735524 182.13305664 58.12060547 C176.94174987 70.01056319 171.86576769 81.94232456 166.94970703 93.94921875 C166.16461824 95.83808422 165.28254254 97.68657919 164.36865234 99.51660156 C162.48600999 103.92076236 162.53789934 108.14465649 162.5546875 112.875 C162.53843323 114.21452728 162.53843323 114.21452728 162.52185059 115.58111572 C162.4761768 119.37710585 162.46445335 123.17302233 162.44970703 126.96923828 C162.43405223 129.75057507 162.40108032 132.53133551 162.3671875 135.3125 C162.37020874 136.17188171 162.37322998 137.03126343 162.37634277 137.91668701 C162.36623169 138.71471741 162.35612061 139.5127478 162.34570312 140.33496094 C162.34364868 141.03554626 162.34159424 141.73613159 162.33947754 142.45794678 C161.84026848 144.92429066 160.94177181 145.81497736 158.9609375 147.328125 C155.89819336 147.70043945 155.89819336 147.70043945 152.17578125 147.69140625 C151.19044151 147.69215401 151.19044151 147.69215401 150.18519592 147.69291687 C148.79913298 147.69057988 147.41306551 147.68087325 146.02709961 147.66430664 C143.90244766 147.64066961 141.77904728 147.64375308 139.65429688 147.65039062 C129.24009665 147.60728415 129.24009665 147.60728415 126.9609375 145.328125 C126.92261145 142.66017407 126.99865938 140.08101744 127.14453125 137.421875 C128.05883179 110.38630041 122.43441575 90.38241716 111.09912109 66.02050781 C108.04692368 59.41194106 105.47344883 52.63317336 102.8984375 45.828125 C100.07104602 38.42937621 97.0315226 31.1571626 93.79907227 23.92773438 C93.42919441 23.09812195 93.05931656 22.26850952 92.67823029 21.41375732 C91.7734505 19.38477142 90.86766443 17.35624132 89.9609375 15.328125 C89.95951248 16.4746756 89.95808746 17.6212262 89.95661926 18.80252075 C89.93987965 29.65886627 89.89689442 40.5148403 89.82884693 51.37098885 C89.79469721 56.95099281 89.76948569 62.53072647 89.76538086 68.11083984 C89.76107208 73.5057379 89.73239674 78.90002741 89.68750572 84.29473495 C89.67461276 86.3429496 89.6701936 88.39123738 89.67478371 90.43948746 C89.70357998 107.20593913 87.93260837 121.44025483 75.9609375 134.328125 C64.34951447 144.6358703 50.85718146 148.84650882 35.46484375 148.17578125 C21.33691611 146.39495003 9.90585314 140.40273651 0.7109375 129.578125 C-7.7158402 118.49909455 -10.35163453 106.74860612 -10.3137207 93.06079102 C-10.31883163 92.08879257 -10.32394257 91.11679413 -10.32920837 90.11534119 C-10.34298724 86.93750676 -10.34215793 83.75989178 -10.33984375 80.58203125 C-10.3437342 78.36148499 -10.34806959 76.14093947 -10.35282898 73.9203949 C-10.36026375 69.28487727 -10.3600177 64.64943588 -10.35473633 60.01391602 C-10.34891388 54.06633753 -10.36595268 48.11906765 -10.389081 42.17154026 C-10.40378088 37.59486562 -10.4046957 33.01826625 -10.40157127 28.44157219 C-10.40208534 26.24746013 -10.40733902 24.05334396 -10.41738319 21.85925484 C-10.42967145 18.80252749 -10.42300421 15.74641421 -10.41137695 12.68969727 C-10.41902069 11.78111969 -10.42666443 10.87254211 -10.43453979 9.93643188 C-10.42752548 9.10534409 -10.42051117 8.27425629 -10.4132843 7.41798401 C-10.41345204 6.69630319 -10.41361979 5.97462236 -10.41379261 5.23107243 C-9.30607546 -0.39411604 -4.85727118 -0.03555746 0 0 Z " fill="#183E60" transform="translate(193.0390625,105.671875)"/>
<path d="M0 0 C0.74168427 0.00444122 1.48336853 0.00888245 2.24752808 0.01345825 C3.50860886 0.01368484 3.50860886 0.01368484 4.79516602 0.01391602 C6.15773026 0.02939987 6.15773026 0.02939987 7.54782104 0.04519653 C8.94192703 0.04944138 8.94192703 0.04944138 10.36419678 0.05377197 C13.33959704 0.06498834 16.3146989 0.09009543 19.29000854 0.11550903 C21.30432712 0.12553696 23.31865041 0.13466313 25.33297729 0.14285278 C30.27710311 0.16493243 35.22100519 0.1994721 40.16500854 0.24050903 C42.21791748 4.1582082 43.83436409 7.95458212 45.12619019 12.18240356 C45.47988174 13.33024323 45.8335733 14.47808289 46.19798279 15.66070557 C46.75593788 17.49845047 46.75593788 17.49845047 47.32516479 19.37332153 C47.71909179 20.65570961 48.11358674 21.93792335 48.50862122 23.2199707 C49.54297901 26.58062757 50.57167273 29.94298681 51.59854126 33.30593872 C53.24431104 38.69505617 54.89538061 44.08252702 56.5527935 49.4680748 C57.1286142 51.34383879 57.69983485 53.22101291 58.27098083 55.09820557 C58.62152023 56.23974091 58.97205963 57.38127625 59.33322144 58.55740356 C59.63949966 59.56078766 59.94577789 60.56417175 60.26133728 61.59796143 C61.06456985 63.94680265 61.99027012 66.05847892 63.16500854 68.24050903 C63.38163147 67.54861481 63.59825439 66.85672058 63.82144165 66.14385986 C65.87653684 59.58233926 67.93543894 53.02202387 69.99848557 46.46299934 C71.05865655 43.09195137 72.11741688 39.7204746 73.17282104 36.34793091 C74.38983522 32.45918908 75.61322068 28.5724764 76.83688354 24.68582153 C77.20996643 23.49062897 77.58304932 22.2954364 77.96743774 21.06402588 C82.67351146 6.15882663 82.67351146 6.15882663 85.16500854 1.24050903 C88.4439278 -0.39895059 92.07114388 0.12020726 95.67282104 0.14285278 C96.51344086 0.14426773 97.35406067 0.14568268 98.22015381 0.1471405 C100.91014129 0.15274666 103.60004613 0.16530017 106.29000854 0.17800903 C108.11162193 0.18302324 109.93323661 0.18758629 111.75485229 0.19168091 C116.22493632 0.20271809 120.69495841 0.21998684 125.16500854 0.24050903 C127.04978744 3.44176484 127.41443082 5.78991466 127.4122467 9.48478699 C127.41644119 10.54613358 127.42063568 11.60748016 127.42495728 12.70098877 C127.41933777 13.86008759 127.41371826 15.0191864 127.40792847 16.21340942 C127.40982681 17.43812454 127.41172516 18.66283966 127.41368103 19.92466736 C127.41675074 23.27998868 127.41088101 26.6350636 127.40072799 29.99035573 C127.39193937 33.50167134 127.39370508 37.01298288 127.39408875 40.52430725 C127.39315253 46.41972074 127.38447384 52.31508271 127.37081909 58.21047974 C127.35508676 65.02809954 127.34982127 71.84566297 127.35055465 78.66329962 C127.35116482 85.22110722 127.34606081 91.77889645 127.33776283 98.33669853 C127.33423091 101.12809836 127.33239972 103.91949168 127.33186913 106.71089363 C127.33067885 110.60628378 127.32097005 114.50162697 127.31027222 118.39700317 C127.3107254 119.55812622 127.31117859 120.71924927 127.31164551 121.91555786 C127.30738052 122.97408463 127.30311554 124.03261139 127.29872131 125.12321472 C127.29704547 126.0444214 127.29536963 126.96562807 127.293643 127.9147501 C127.16500854 130.24050903 127.16500854 130.24050903 126.16500854 133.24050903 C121.59287616 135.52657523 115.24734101 134.4706776 110.22750854 134.49050903 C108.27554565 134.52144653 108.27554565 134.52144653 106.28414917 134.55300903 C105.03955933 134.55816528 103.79496948 134.56332153 102.51266479 134.56863403 C101.36805786 134.57797974 100.22345093 134.58732544 99.04415894 134.59695435 C96.16500854 134.24050903 96.16500854 134.24050903 94.51208496 133.0894928 C92.60055579 130.46574676 92.76591992 128.52891271 92.7326355 125.30032349 C92.71284134 124.07928421 92.69304718 122.85824493 92.6726532 121.60020447 C92.66306831 119.62197945 92.66306831 119.62197945 92.65328979 117.60379028 C92.63644423 116.2404264 92.61829415 114.87707807 92.59889221 113.51374817 C92.55137202 109.92829241 92.52157614 106.34289966 92.49545288 102.75723267 C92.46565725 99.09723464 92.41912359 95.43745378 92.37399292 91.77761841 C92.28793703 84.59868965 92.22060235 77.41974515 92.16500854 70.24050903 C90.66570241 74.02915449 89.16907523 77.81884693 87.67472839 81.60945129 C87.16796423 82.89388801 86.66051862 84.17805612 86.15232849 85.46192932 C83.06116608 93.27287781 80.07196049 101.10382163 77.35250854 109.05300903 C77.06704163 109.88530533 76.78157471 110.71760162 76.48745728 111.57511902 C76.11321625 112.66632301 76.11321625 112.66632301 75.73141479 113.77957153 C69.42965015 131.97586742 69.42965015 131.97586742 67.16500854 134.24050903 C64.49442003 134.38166065 61.84068617 134.28298011 59.16500854 134.24050903 C55.70443368 127.77040052 53.29971292 121.19102818 50.97750854 114.24050903 C47.52762456 104.08175113 43.89610742 94.01103822 40.084198 83.98269653 C39.73059204 83.05199341 39.37698608 82.12129028 39.01266479 81.16238403 C38.54872314 79.94953735 38.54872314 79.94953735 38.07540894 78.71218872 C37.04248644 75.90786925 36.10515412 73.07711505 35.16500854 70.24050903 C35.16136292 70.98331116 35.15771729 71.72611328 35.15396118 72.49142456 C35.11607758 79.49533889 35.05922141 86.49878302 34.9811058 93.50234604 C34.94161402 97.10291097 34.90943434 100.70323074 34.89401245 104.3039856 C34.87885637 107.77967494 34.84443144 111.25469037 34.79669952 114.73007965 C34.77466483 116.69974024 34.7725339 118.66959084 34.7706604 120.63937378 C34.75094177 121.84031677 34.73122314 123.04125977 34.71090698 124.27859497 C34.69758331 125.86411163 34.69758331 125.86411163 34.68399048 127.48165894 C34.03507553 130.93121845 32.91892386 132.12339951 30.16500854 134.24050903 C27.09640503 134.74221802 27.09640503 134.74221802 23.53610229 134.73660278 C21.61314331 134.73756958 21.61314331 134.73756958 19.65133667 134.73855591 C18.98690552 134.72816284 18.32247437 134.71776978 17.63790894 134.70706177 C15.6050993 134.67804601 13.57489037 134.68646969 11.54196167 134.69949341 C1.72146557 134.63524255 1.72146557 134.63524255 -0.70071411 132.91702271 C-3.21103953 129.20664718 -2.77317795 124.37015749 -2.57717896 120.03738403 C-1.30465046 113.52739615 3.11017813 111.0593853 8.16500854 107.24050903 C18.29002936 97.09582799 23.94223993 80.02003487 24.23532104 65.83816528 C24.21211792 64.98093872 24.18891479 64.12371216 24.16500854 63.24050903 C22.68000854 63.73550903 22.68000854 63.73550903 21.16500854 64.24050903 C20.23246758 66.92545769 20.23246758 66.92545769 19.66500854 70.17800903 C19.28602417 71.95498169 19.28602417 71.95498169 18.89938354 73.76785278 C18.65703979 74.91382935 18.41469604 76.05980591 18.16500854 77.24050903 C14.40577235 93.45823955 5.58417284 105.47366538 -8.16311646 114.67410278 C-20.78848848 122.07581942 -34.75265509 125.45697631 -49.27249146 122.55300903 C-64.02922167 118.37657595 -76.45860711 109.47337288 -84.36624146 96.21316528 C-91.80481602 81.15796516 -92.39357826 65.19761074 -87.83499146 49.24050903 C-81.7035161 33.95957357 -70.34522607 23.72231374 -55.92483521 16.50222778 C-43.53188114 11.44164098 -29.19153221 11.52865598 -16.65530396 16.05300903 C-1.05155359 22.62300919 9.28588265 33.96187072 16.16500854 49.24050903 C16.84205622 50.9029857 17.51167557 52.56857056 18.16500854 54.24050903 C19.15500854 54.24050903 20.14500854 54.24050903 21.16500854 54.24050903 C19.75944828 40.71627675 11.91754946 30.20230339 2.16500854 21.24050903 C1.07317261 20.62691528 -0.01866333 20.01332153 -1.14358521 19.38113403 C-3.83499146 17.24050903 -3.83499146 17.24050903 -4.49124146 13.63894653 C-4.47010775 12.29695615 -4.4171151 10.95515097 -4.33499146 9.61550903 C-4.32467896 8.93488403 -4.31436646 8.25425903 -4.30374146 7.55300903 C-4.08182806 0.53499787 -4.08182806 0.53499787 0 0 Z M-66.64358521 35.97879028 C-77.23462293 48.11205936 -80.69949268 59.3930156 -80.00979614 75.16384888 C-79.16673084 85.17937048 -72.82600231 95.88043181 -65.52249146 102.61550903 C-58.61966146 108.01568216 -50.19533444 111.97105908 -41.35305786 111.86990356 C-38.06485828 111.04801307 -37.26591691 109.90967309 -35.40921021 107.11160278 C-34.40868959 105.32126722 -33.44736568 103.50856922 -32.52249146 101.67800903 C-31.54975134 99.88367169 -30.57452932 98.0906774 -29.59671021 96.29910278 C-29.13699829 95.4378479 -28.67728638 94.57659302 -28.2036438 93.6892395 C-23.34433143 84.99517902 -23.34433143 84.99517902 -19.83499146 83.24050903 C-19.83499146 82.25050903 -19.83499146 81.26050903 -19.83499146 80.24050903 C-26.68757208 75.77008962 -31.83319541 74.7704564 -39.95217896 75.55300903 C-42.95591478 76.26934711 -44.54822195 77.20782503 -46.83499146 79.24050903 C-46.21831939 76.77980788 -45.59210752 74.32224382 -44.95999146 71.86550903 C-44.78596802 71.16683716 -44.61194458 70.46816528 -44.43264771 69.74832153 C-43.06155396 64.46707153 -43.06155396 64.46707153 -40.83499146 62.24050903 C-40.55594516 59.1301196 -40.55594516 59.1301196 -40.63967896 55.48269653 C-40.6439238 54.48811935 -40.6439238 54.48811935 -40.64825439 53.47344971 C-40.6594571 51.3539532 -40.68456095 49.23487799 -40.70999146 47.11550903 C-40.72002118 45.67931722 -40.72914704 44.24311878 -40.73733521 42.80691528 C-40.75939645 39.28464275 -40.79392652 35.762617 -40.83499146 32.24050903 C-38.52499146 32.24050903 -36.21499146 32.24050903 -33.83499146 32.24050903 C-33.33999146 46.59550903 -33.33999146 46.59550903 -32.83499146 61.24050903 C-27.97411384 61.24050903 -26.99999419 60.15107713 -23.27249146 57.17800903 C-17.68738756 52.8082307 -11.88635376 48.94518163 -5.83499146 45.24050903 C-7.16313792 49.39642275 -8.65180348 51.26983495 -12.18655396 53.79129028 C-13.03733521 54.40681763 -13.88811646 55.02234497 -14.76467896 55.65652466 C-15.65413208 56.2823645 -16.54358521 56.90820435 -17.45999146 57.55300903 C-18.35717896 58.19818481 -19.25436646 58.8433606 -20.17874146 59.50808716 C-22.39025065 61.09613897 -24.60890907 62.67298395 -26.83499146 64.24050903 C-26.2042321 70.08188914 -25.45896056 72.45726159 -20.83499146 76.24050903 C-19.17866831 77.25754956 -17.51346714 78.26045947 -15.83499146 79.24050903 C-1.44294153 72.58466434 -1.44294153 72.58466434 8.01657104 61.42019653 C8.43132946 52.53563478 3.02479041 43.97288803 -2.60061646 37.45925903 C-11.33596845 28.78499341 -22.10774152 23.15484052 -34.45999146 22.99050903 C-46.7996924 23.13073291 -57.68656827 27.24601021 -66.64358521 35.97879028 Z " fill="#1C4262" transform="translate(222.83499145507813,259.7594909667969)"/>
<path d="M0 0 C1.69305016 -0.00934319 1.69305016 -0.00934319 3.42030334 -0.01887512 C4.64212814 -0.00966537 5.86395294 -0.00045563 7.12280273 0.0090332 C8.38221176 0.0085347 9.64162079 0.00803619 10.93919373 0.00752258 C13.61016134 0.00986636 16.28034106 0.01803686 18.95117188 0.03613281 C22.34799098 0.05865908 25.74436334 0.05939381 29.14123631 0.05261517 C32.40595774 0.04843236 35.67060267 0.06048385 38.93530273 0.0715332 C40.14295792 0.0706218 41.3506131 0.06971039 42.59486389 0.06877136 C56.87171884 0.18702934 69.01616514 2.95429953 79.99389648 12.55981445 C90.65389148 24.55230883 93.38749115 36.67581454 92.88452148 52.41137695 C92.38297552 60.85829988 89.56440489 67.67199978 84.49389648 74.37231445 C84.8922168 74.8105957 85.29053711 75.24887695 85.70092773 75.70043945 C93.63805301 85.2018157 94.29650663 96.38948577 93.49389648 108.37231445 C92.71605042 115.23848651 90.7308623 121.2758382 87.49389648 127.37231445 C87.1806543 127.96657227 86.86741211 128.56083008 86.54467773 129.1730957 C80.55469716 138.85949552 69.08270892 145.07470307 58.49389648 148.37231445 C57.50389648 148.37231445 56.51389648 148.37231445 55.49389648 148.37231445 C55.08139648 147.52668945 54.66889648 146.68106445 54.24389648 145.80981445 C46.53780451 130.67284807 33.70826782 119.45194897 17.70874023 113.39575195 C9.10225236 110.65589798 0.44611875 108.60673439 -8.50610352 107.37231445 C-8.57552529 93.86424366 -8.62887501 80.35621509 -8.66154003 66.84800243 C-8.6772153 60.57601318 -8.69848766 54.30414571 -8.73242188 48.03222656 C-8.76494873 41.98276378 -8.7829425 35.93341835 -8.79073524 29.88387489 C-8.79629075 27.57252466 -8.80713886 25.26118105 -8.82329369 22.9498806 C-8.84497899 19.71969958 -8.84807414 16.49000738 -8.84667969 13.25976562 C-8.85746552 12.29807465 -8.86825134 11.33638367 -8.87936401 10.34555054 C-8.87524002 9.46635452 -8.87111603 8.58715851 -8.86686707 7.68132019 C-8.86963244 6.91715381 -8.87239782 6.15298742 -8.875247 5.36566448 C-7.94720719 0.35431184 -4.49073937 -0.00284496 0 0 Z M26.49389648 36.37231445 C26.40720216 37.86103305 26.38686155 39.35375945 26.39624023 40.8449707 C26.39946289 41.7440918 26.40268555 42.64321289 26.40600586 43.56958008 C26.41438477 44.51510742 26.42276367 45.46063477 26.43139648 46.43481445 C26.4359082 47.38420898 26.44041992 48.33360352 26.44506836 49.31176758 C26.45689538 51.6653451 26.47337623 54.01879923 26.49389648 56.37231445 C30.5560186 56.5177899 34.61746936 56.60644671 38.68139648 56.68481445 C39.83188477 56.72670898 40.98237305 56.76860352 42.16772461 56.81176758 C48.88673963 57.00811637 48.88673963 57.00811637 54.73217773 54.06762695 C56.95874014 50.66113459 57.49389648 48.44226061 57.49389648 44.37231445 C56.28088753 40.66193413 55.28861216 38.91058833 52.04858398 36.71606445 C47.18458373 34.87736546 42.83179105 35.0101207 37.68139648 35.12231445 C36.71524414 35.1274707 35.7490918 35.13262695 34.75366211 35.13793945 C30.28649615 34.78447853 30.28649615 34.78447853 26.49389648 36.37231445 Z M27.49389648 90.37231445 C27.49389648 97.30231445 27.49389648 104.23231445 27.49389648 111.37231445 C31.39014754 111.45329889 35.28471278 111.51281252 39.18139648 111.55981445 C40.83558594 111.59751953 40.83558594 111.59751953 42.52319336 111.63598633 C44.12324219 111.65048828 44.12324219 111.65048828 45.75561523 111.6652832 C46.7348999 111.68099365 47.71418457 111.6967041 48.72314453 111.71289062 C52.01641105 111.30808784 53.83505045 110.33057475 56.49389648 108.37231445 C58.95266164 104.68416673 59.18823639 101.65547145 58.49389648 97.37231445 C56.42618544 94.09249694 54.72270638 92.52485438 51.49389648 90.37231445 C48.87788093 90.09631494 48.87788093 90.09631494 45.95092773 90.17700195 C44.8777832 90.18344727 43.80463867 90.18989258 42.69897461 90.1965332 C41.57942383 90.21329102 40.45987305 90.23004883 39.30639648 90.24731445 C38.17524414 90.25633789 37.0440918 90.26536133 35.87866211 90.2746582 C33.0836502 90.2982448 30.28874689 90.33411604 27.49389648 90.37231445 Z " fill="#193E61" transform="translate(84.506103515625,105.627685546875)"/>
<path d="M0 0 C1.38048486 -0.02668399 2.76167042 -0.02557627 4.14222717 -0.00291443 C4.89701859 -0.01006973 5.65181 -0.01722504 6.42947388 -0.02459717 C8.92686833 -0.04151877 11.42247604 -0.02206162 13.91981506 -0.00071716 C15.65472563 -0.00154564 17.38963613 -0.00400422 19.12454224 -0.00802612 C22.76218774 -0.01088659 26.39921837 0.00383919 30.03675842 0.03126526 C34.69887893 0.06532353 39.35989791 0.05934088 44.02207088 0.04060268 C47.60550101 0.03003091 51.18867506 0.03897247 54.77208138 0.0539875 C56.49086814 0.05917021 58.20968165 0.05868642 59.92846489 0.05244255 C62.33233427 0.04698902 64.73463078 0.06736844 67.13832092 0.09474182 C68.20371597 0.084953 68.20371597 0.084953 69.29063416 0.07496643 C72.65501438 0.14007981 74.43519514 0.424746 77.15325928 2.4744873 C79.30449671 5.46030155 79.10759822 7.42569755 78.94715881 11.07350159 C78.87368225 12.93555237 78.87368225 12.93555237 78.79872131 14.83522034 C78.72653381 16.12815002 78.65434631 17.42107971 78.57997131 18.75318909 C78.50649475 20.70418518 78.50649475 20.70418518 78.43153381 22.69459534 C77.98975696 32.34340344 77.98975696 32.34340344 75.70497131 34.62818909 C73.68016052 34.90666199 73.68016052 34.90666199 71.16346741 34.94703674 C70.22264313 34.96690643 69.28181885 34.98677612 68.31248474 35.00724792 C67.29473969 35.01879913 66.27699463 35.03035034 65.22840881 35.04225159 C63.66783249 35.07130081 63.66783249 35.07130081 62.07572937 35.10093689 C58.74389412 35.16084636 55.41202453 35.2071636 52.07997131 35.25318909 C49.82474769 35.29135839 47.5695388 35.33040949 45.31434631 35.37037659 C39.77801856 35.46655708 34.24160246 35.55157105 28.70497131 35.62818909 C28.67811193 37.77395545 28.65864044 39.91981554 28.64247131 42.06568909 C28.63086975 43.26065002 28.61926819 44.45561096 28.60731506 45.68678284 C28.3659534 48.5169225 28.3659534 48.5169225 29.70497131 49.62818909 C31.13659062 49.740022 32.57353328 49.78488918 34.00941467 49.80177307 C34.92383835 49.81526291 35.83826202 49.82875275 36.78039551 49.84265137 C37.77515396 49.85308975 38.76991241 49.86352814 39.79481506 49.87428284 C41.87880372 49.90721595 43.96278799 49.94042768 46.04676819 49.97389221 C49.34971641 50.02138301 52.65264614 50.0658098 55.95570374 50.10499573 C59.13143155 50.14458269 62.30678904 50.1961567 65.48231506 50.24928284 C66.47504929 50.25769699 67.46778351 50.26611115 68.49060059 50.27478027 C69.40817642 50.29142227 70.32575226 50.30806427 71.27113342 50.32521057 C72.08086105 50.33551804 72.89058868 50.3458255 73.72485352 50.35644531 C75.70497131 50.62818909 75.70497131 50.62818909 77.70497131 52.62818909 C77.96376038 55.57740784 77.96376038 55.57740784 77.97059631 59.31568909 C77.97250977 59.97399719 77.97442322 60.6323053 77.97639465 61.31056213 C77.97775581 62.70257449 77.97406414 64.09459956 77.9657135 65.48658752 C77.95501231 67.62001498 77.96561038 69.75260039 77.97840881 71.88600159 C77.97708721 73.23756595 77.97452478 74.58912979 77.97059631 75.94068909 C77.96834045 77.1743219 77.96608459 78.40795471 77.96376038 79.67897034 C77.70497131 82.62818909 77.70497131 82.62818909 75.70497131 84.62818909 C73.68016052 84.86869812 73.68016052 84.86869812 71.16346741 84.85523987 C70.22264313 84.85508881 69.28181885 84.85493774 68.31248474 84.8547821 C67.29473969 84.84445953 66.27699463 84.83413696 65.22840881 84.82350159 C64.1880246 84.82067169 63.14764038 84.8178418 62.07572937 84.81492615 C58.74369437 84.80370612 55.41192545 84.77859823 52.07997131 84.75318909 C49.82476685 84.74316164 47.56955819 84.73403539 45.31434631 84.72584534 C39.77778502 84.70376082 34.24142332 84.66921855 28.70497131 84.62818909 C28.70497131 89.90818909 28.70497131 95.18818909 28.70497131 100.62818909 C30.66503113 100.60462341 30.66503113 100.60462341 32.66468811 100.58058167 C37.51944295 100.52622189 42.37417095 100.49181683 47.22914124 100.46339417 C49.32912218 100.44832137 51.42907171 100.42785967 53.52894592 100.40187073 C56.54993955 100.36542155 59.57051642 100.34844749 62.59169006 100.33522034 C63.52832993 100.31973648 64.46496979 100.30425262 65.42999268 100.28829956 C74.31147855 100.28601404 74.31147855 100.28601404 77.70497131 103.62818909 C78.32020569 106.49147034 78.32020569 106.49147034 78.29872131 109.94068909 C78.29614319 111.18076721 78.29356506 112.42084534 78.29090881 113.69850159 C78.26254944 114.99529846 78.23419006 116.29209534 78.20497131 117.62818909 C78.2088385 119.5733844 78.2088385 119.5733844 78.21278381 121.55787659 C78.11470297 130.99325353 78.11470297 130.99325353 76.63781738 133.28189087 C73.72377271 135.31162992 70.78582685 135.05418414 67.35951233 135.03224182 C66.61447449 135.03910507 65.86943665 135.04596832 65.1018219 135.05303955 C62.63731362 135.07135114 60.17343932 135.06746392 57.70887756 135.06178284 C55.99638664 135.06634273 54.28389755 135.07164772 52.57141113 135.07766724 C48.9810086 135.086607 45.3908284 135.08416564 41.8004303 135.07423401 C37.19890416 135.06274595 32.59814559 135.08294847 27.99672031 135.11215115 C24.45965701 135.13049674 20.92277818 135.13022395 17.38567924 135.12451363 C15.68920249 135.12436019 13.99271339 135.13042261 12.29628181 135.1428051 C9.92363978 135.15768209 7.55242225 135.14706368 5.17982483 135.12989807 C4.12845589 135.14440002 4.12845589 135.14440002 3.05584717 135.15919495 C-0.12801499 135.11095461 -1.9361476 134.9091424 -4.47520638 132.92141724 C-6.65919918 130.16928383 -6.7954366 128.90926236 -6.79623413 125.43533325 C-6.80606827 124.38529114 -6.8159024 123.33524902 -6.82603455 122.25338745 C-6.81636658 121.10678146 -6.80669861 119.96017548 -6.79673767 118.77882385 C-6.80214066 117.56707489 -6.80754364 116.35532593 -6.81311035 115.1068573 C-6.82347538 111.78625518 -6.81589418 108.46664933 -6.79939914 105.14613461 C-6.78554038 101.66911498 -6.79200977 98.19212518 -6.79553223 94.71508789 C-6.79823407 88.87508302 -6.78476239 83.03528371 -6.76158142 77.19532776 C-6.73498412 70.44809438 -6.73322063 63.70120494 -6.74496979 56.95393711 C-6.75575874 50.4591041 -6.74955097 43.96439524 -6.73541451 37.46957207 C-6.72966309 34.70770767 -6.72973073 31.94593438 -6.7344799 29.18406868 C-6.74014941 25.32489695 -6.7209076 21.46606765 -6.69908142 17.60694885 C-6.70358307 16.4623671 -6.70808472 15.31778534 -6.71272278 14.13851929 C-6.70281815 13.08565735 -6.69291351 12.03279541 -6.68270874 10.94802856 C-6.68027884 10.03603982 -6.67784895 9.12405107 -6.67534542 8.18442631 C-5.98146953 3.52065211 -4.72836483 0.90145109 0 0 Z " fill="#194062" transform="translate(362.29502868652344,259.37181091308594)"/>
<path d="M0 0 C0.90591385 -0.00204437 1.8118277 -0.00408875 2.74519348 -0.00619507 C5.74358208 -0.00920656 8.74142275 0.00928287 11.73974609 0.02832031 C13.81814437 0.03137695 15.89654468 0.0332538 17.97494507 0.03399658 C22.33119542 0.03860172 26.68726112 0.05303761 31.04345703 0.07519531 C36.64046683 0.10351294 42.23733127 0.11441002 47.8344059 0.11887741 C52.12535062 0.12302435 56.41626566 0.13283515 60.70719528 0.1447525 C62.77177059 0.15046772 64.83634877 0.15522225 66.9009285 0.15901947 C69.77905605 0.16585787 72.65706594 0.17947773 75.53515625 0.1953125 C76.82712166 0.19698929 76.82712166 0.19698929 78.14518738 0.19869995 C84.02349609 0.24175781 84.02349609 0.24175781 85.13818359 1.35644531 C85.96557424 6.5876894 86.12178745 11.17682926 85.13818359 16.35644531 C82.03469941 20.18556428 78.18506278 22.59599129 74.13818359 25.35644531 C64.52429693 33.8927685 57.14226979 47.73157404 55.92285156 60.63500977 C55.79881053 63.08846095 55.75842516 65.52490207 55.76318359 67.98144531 C55.76479492 68.85518799 55.76640625 69.72893066 55.76806641 70.62915039 C55.92197894 78.85215395 57.16785522 86.89243757 61.15600586 94.22875977 C64.89398614 101.38232265 64.69869095 108.22901888 64.57568359 116.16894531 C64.58277344 117.47798828 64.58986328 118.78703125 64.59716797 120.13574219 C64.53454717 129.51441102 64.53454717 129.51441102 63.02148438 132.72875977 C60.25406081 135.12056854 58.18749971 134.8424255 54.57177734 134.81738281 C53.28207031 134.81351563 51.99236328 134.80964844 50.66357422 134.80566406 C49.99302002 134.79325684 49.32246582 134.78084961 48.6315918 134.76806641 C46.57924878 134.73150882 44.52870911 134.72704735 42.47607422 134.72753906 C32.41871584 134.63697756 32.41871584 134.63697756 30.13818359 132.35644531 C29.92011045 129.28432642 29.82671721 126.2997856 29.81933594 123.22509766 C29.80929031 122.27870926 29.79924469 121.33232086 29.78889465 120.35725403 C29.75792375 117.21896999 29.74098897 114.08077178 29.72412109 110.94238281 C29.70542063 108.77046971 29.68584807 106.59856395 29.66543579 104.42666626 C29.61399011 98.70235517 29.57443106 92.97802049 29.53729248 87.25360107 C29.49733062 81.4154267 29.44620272 75.57735149 29.39599609 69.73925781 C29.29908963 58.27838985 29.21473212 46.81746605 29.13818359 35.35644531 C27.38175537 35.36430054 27.38175537 35.36430054 25.58984375 35.37231445 C21.25505332 35.39038289 16.92026622 35.4018841 12.58544922 35.41137695 C10.70751384 35.41641294 8.8295824 35.42324202 6.95166016 35.43188477 C4.25601227 35.44398245 1.56041612 35.44968088 -1.13525391 35.45410156 C-1.97800873 35.45926285 -2.82076355 35.46442413 -3.6890564 35.46974182 C-9.63407299 35.47031702 -9.63407299 35.47031702 -11.86181641 34.35644531 C-11.93599686 29.99653658 -11.99043185 25.63696252 -12.02661133 21.27661133 C-12.04169409 19.79347332 -12.0621633 18.31037988 -12.08813477 16.82739258 C-12.12454256 14.69503787 -12.14154714 12.56327296 -12.15478516 10.43066406 C-12.17049561 9.14764404 -12.18620605 7.86462402 -12.20239258 6.54272461 C-11.86181641 3.35644531 -11.86181641 3.35644531 -10.58332253 1.68027115 C-7.53912041 -0.6606984 -3.68930676 -0.03965668 0 0 Z " fill="#194062" transform="translate(71.86181640625,259.6435546875)"/>
<path d="M0 0 C5.98147899 -0.25568498 11.06743551 0.17334193 16.75 2.0625 C17.77915527 2.39858276 17.77915527 2.39858276 18.82910156 2.74145508 C34.42702958 8.0641848 48.73349326 17.4199153 57 32 C57.33 32.99 57.66 33.98 58 35 C50.58540058 35.02312883 43.17080889 35.04091785 35.75618076 35.05181217 C32.31359652 35.05703982 28.87103688 35.06413531 25.4284668 35.07543945 C21.47444957 35.08834235 17.52044244 35.09322918 13.56640625 35.09765625 C11.70394005 35.10539818 11.70394005 35.10539818 9.80384827 35.11329651 C8.09218727 35.11340981 8.09218727 35.11340981 6.34594727 35.11352539 C5.335569 35.115746 4.32519073 35.11796661 3.28419495 35.12025452 C1 35 1 35 0 34 C-0.08847743 31.47905924 -0.11527301 28.98569107 -0.09765625 26.46484375 C-0.0962413 25.71159317 -0.09482635 24.95834259 -0.09336853 24.18226624 C-0.08775376 21.7673044 -0.07519883 19.35243399 -0.0625 16.9375 C-0.0574869 15.30403779 -0.05292366 13.67057414 -0.04882812 12.03710938 C-0.03777954 8.02470415 -0.02050506 4.01236759 0 0 Z " fill="#1B4263" transform="translate(76,219)"/>
<path d="M0 0 C1.85965075 1.85965075 1.24087549 4.94889119 1.31640625 7.44140625 C1.37924805 9.39916992 1.37924805 9.39916992 1.44335938 11.39648438 C1.48317608 12.7851533 1.52288825 14.17382522 1.5625 15.5625 C1.60567989 16.95509183 1.649294 18.34767028 1.69335938 19.74023438 C1.79985876 23.16004801 1.90186923 26.57993763 2 30 C5.93434163 28.11780071 9.35924852 25.68530309 12.875 23.125 C25.46587537 14 25.46587537 14 28 14 C27.68167053 17.09732246 27.38081853 18.62018244 25.14233398 20.8527832 C24.35157471 21.41312256 23.56081543 21.97346191 22.74609375 22.55078125 C21.46508789 23.47407227 21.46508789 23.47407227 20.15820312 24.41601562 C19.26037109 25.04185547 18.36253906 25.66769531 17.4375 26.3125 C16.08495117 27.28026367 16.08495117 27.28026367 14.70507812 28.26757812 C12.47868843 29.85785648 10.24383581 31.43448156 8 33 C8.6251079 38.85265858 9.42432276 41.16920045 14 45 C15.31175986 46.02813611 16.6369893 47.04084432 18 48 C16.71480435 50.86697492 15.42870746 52.97607712 13 55 C12.34 55 11.68 55 11 55 C11 55.66 11 56.32 11 57 C10.34 57 9.68 57 9 57 C9.8125 55.0625 9.8125 55.0625 11 53 C12.485 52.505 12.485 52.505 14 52 C14 51.01 14 50.02 14 49 C13.13375 48.71125 12.2675 48.4225 11.375 48.125 C8 47 8 47 5.3125 45.8125 C-0.80199815 44.31271744 -7.48729397 44.84248763 -13 48 C-11.28571429 34.28571429 -11.28571429 34.28571429 -8 31 C-7.62677573 27.89243985 -7.62677573 27.89243985 -7.5859375 24.2421875 C-7.56657135 23.57913605 -7.5472052 22.91608459 -7.5272522 22.23294067 C-7.46744046 20.11375823 -7.42106612 17.9945215 -7.375 15.875 C-7.33682155 14.43877831 -7.29776989 13.00257955 -7.2578125 11.56640625 C-7.16173875 8.04448064 -7.07771358 4.52238392 -7 1 C-4.51588385 -0.24205807 -2.74800896 -0.14092354 0 0 Z " fill="#2E516D" transform="translate(189,291)"/>
<path d="M0 0 C0.29363808 4.99184736 0.07836372 7.97444744 -3 12 C-6.36613647 13.68306823 -10.11433508 13.26885525 -13.8125 13.3125 C-15.02389648 13.35600586 -15.02389648 13.35600586 -16.25976562 13.40039062 C-20.13471564 13.44164726 -22.55242362 13.22122899 -26.07421875 11.48046875 C-28.8757633 7.87198845 -28.37398441 5.48781288 -28 1 C-26.04707031 1.01740234 -26.04707031 1.01740234 -24.0546875 1.03515625 C-22.32812644 1.04453973 -20.60156382 1.05363934 -18.875 1.0625 C-18.0190625 1.07087891 -17.163125 1.07925781 -16.28125 1.08789062 C-10.77441827 1.10907075 -5.44723521 0 0 0 Z " fill="#254966" transform="translate(201,253)"/>
<path d="M0 0 C4.39656173 -0.02465504 8.7930872 -0.04283842 13.18969727 -0.05493164 C14.68644918 -0.05997121 16.18319616 -0.06680287 17.67993164 -0.07543945 C19.82699807 -0.08752159 21.97399962 -0.09323191 24.12109375 -0.09765625 C26.06133423 -0.10551147 26.06133423 -0.10551147 28.04077148 -0.11352539 C31 0 31 0 32 1 C32.09529612 4.01350238 32.12551904 7.00404106 32.11352539 10.01782227 C32.11367142 10.96406464 32.11381744 11.91030701 32.1139679 12.88522339 C32.11326836 16.02897392 32.10547409 19.17266601 32.09765625 22.31640625 C32.09579221 24.48974068 32.09436824 26.66307552 32.09336853 28.83641052 C32.08954221 34.56901195 32.07971097 40.30158823 32.06866455 46.03417969 C32.05845287 51.87890279 32.05387143 57.72362993 32.04882812 63.56835938 C32.0380888 75.045584 32.02101102 86.52278991 32 98 C31.67 98 31.34 98 31 98 C30.505 50.48 30.505 50.48 30 2 C20.1 2 10.2 2 0 2 C0 1.34 0 0.68 0 0 Z " fill="#4F6B80" transform="translate(186,106)"/>
<path d="M0 0 C-0.338789 2.92030514 -0.60792572 4.57959985 -2.64233398 6.76098633 C-3.68369507 7.53865356 -3.68369507 7.53865356 -4.74609375 8.33203125 C-5.87821289 9.18764648 -5.87821289 9.18764648 -7.03320312 10.06054688 C-7.82662109 10.63869141 -8.62003906 11.21683594 -9.4375 11.8125 C-10.62182617 12.7087207 -10.62182617 12.7087207 -11.83007812 13.62304688 C-17.69769643 18 -17.69769643 18 -20 18 C-20.33 17.34 -20.66 16.68 -21 16 C-21.66 15.67 -22.32 15.34 -23 15 C-3.3 0 -3.3 0 0 0 Z " fill="#36566F" transform="translate(217,305)"/>
<path d="M0 0 C1.65 0.99 3.3 1.98 5 3 C3.71480435 5.86697492 2.42870746 7.97607712 0 10 C-0.66 10 -1.32 10 -2 10 C-2 10.66 -2 11.32 -2 12 C-2.66 12 -3.32 12 -4 12 C-3.1875 10.0625 -3.1875 10.0625 -2 8 C-1.01 7.67 -0.02 7.34 1 7 C1 6.01 1 5.02 1 4 C-0.32 3.34 -1.64 2.68 -3 2 C-2.01 2 -1.02 2 0 2 C0 1.34 0 0.68 0 0 Z " fill="#48677E" transform="translate(202,336)"/>
<path d="M0 0 C-0.25 2.375 -0.25 2.375 -1 5 C-3.0625 6.3125 -3.0625 6.3125 -5 7 C-5.33 5.68 -5.66 4.36 -6 3 C-2.25 0 -2.25 0 0 0 Z " fill="#48657B" transform="translate(217,305)"/>
<path d="M0 0 C0.66 0.33 1.32 0.66 2 1 C-0.97 3.97 -3.94 6.94 -7 10 C-7.66 9.67 -8.32 9.34 -9 9 C-6 6 -3 3 0 0 Z " fill="#48647A" transform="translate(156,282)"/>
<path d="M0 0 C0.66 0.33 1.32 0.66 2 1 C1.625 3.4375 1.625 3.4375 1 6 C0.01 6.495 0.01 6.495 -1 7 C-1 6.01 -1 5.02 -1 4 C-1.99 3.67 -2.98 3.34 -4 3 C-2.68 2.01 -1.36 1.02 0 0 Z " fill="#43637A" transform="translate(203,313)"/>
</svg>
